  0
SECTION
  2
ENTITIES
999
DXF created from EnergyPlus
999
Program Version,EnergyPlus, Version 25.1.0-1c11a3d85f, YMD=2026.06.05 01:20
999
Polygon Action,THICKPOLYLINE
999
Color Scheme,Default
999
Text - True North
  0
TEXT
  8
1
  6
Continuous
 62
  3
 10
      -14.34146
 20
        1.07976
 30
        0.10000
 40
 .25
  1
True North
 41
 0.0
  7
MONOTXT
210
0.0
220
0.0
230
1.0
999
Text - Building Title
  0
TEXT
  8
1
  6
Continuous
 62
  3
 10
      -17.34146
 20
       -2.92024
 30
        0.10000
 40
 .4
  1
Building - None
 41
 0.0
  7
MONOTXT
210
0.0
220
0.0
230
1.0
999
North Arrow Stem
  0
3DFACE
  8
1
 62
  3
 10
      -13.34146
 20
        1.07976
 30
        0.10000
 11
      -13.34146
 21
        1.07976
 31
        0.00000
 12
      -13.34146
 22
       -1.92024
 32
        0.00000
 13
      -13.34146
 23
       -1.92024
 33
        0.10000
999
North Arrow Head 1
  0
3DFACE
  8
1
 62
  3
 10
      -13.34146
 20
        1.07976
 30
        0.10000
 11
      -13.34146
 21
        1.07976
 31
        0.00000
 12
      -13.84146
 22
        0.21374
 32
        0.00000
 13
      -13.84146
 23
        0.21374
 33
        0.10000
999
North Arrow Head 2
  0
3DFACE
  8
1
 62
  3
 10
      -13.34146
 20
        1.07976
 30
        0.10000
 11
      -13.34146
 21
        1.07976
 31
        0.00000
 12
      -12.84146
 22
        0.21374
 32
        0.00000
 13
      -12.84146
 23
        0.21374
 33
        0.10000
999
North Arrow Side 1
  0
3DFACE
  8
1
 62
  3
 10
      -13.84146
 20
        2.57976
 30
        0.10000
 11
      -13.84146
 21
        2.57976
 31
        0.00000
 12
      -13.84146
 22
        1.57976
 32
        0.00000
 13
      -13.84146
 23
        1.57976
 33
        0.10000
999
North Arrow Side 2
  0
3DFACE
  8
1
 62
  3
 10
      -13.84146
 20
        2.57976
 30
        0.10000
 11
      -13.84146
 21
        2.57976
 31
        0.00000
 12
      -12.84146
 22
        1.57976
 32
        0.00000
 13
      -12.84146
 23
        1.57976
 33
        0.10000
999
North Arrow Side 3
  0
3DFACE
  8
1
 62
  3
 10
      -12.84146
 20
        2.57976
 30
        0.10000
 11
      -12.84146
 21
        2.57976
 31
        0.00000
 12
      -12.84146
 22
        1.57976
 32
        0.00000
 13
      -12.84146
 23
        1.57976
 33
        0.10000
999
Zone Names
999
Zone=1:LIVINGZONE
999
LIVINGZONE:SOUTHWALL
  0
3DFACE
  8
LIVINGZONE
 62
 43
 10
       -0.00000
 20
        0.00000
 30
        3.65760
 11
        0.00000
 21
        0.00000
 31
        0.00000
 12
       12.19200
 22
        0.00000
 32
        0.00000
 13
       12.19200
 23
        0.00000
 33
        3.65760
999
LIVINGZONE:SOUTHWINDOW1
  0
3DFACE
  8
LIVINGZONE
 62
143
 10
        1.52400
 20
        0.00000
 30
        2.74320
 11
        1.52400
 21
        0.00000
 31
        0.60960
 12
       10.66800
 22
        0.00000
 32
        0.60960
 13
       10.66800
 23
        0.00000
 33
        2.74320
999
LIVINGZONE:WESTWALL
  0
3DFACE
  8
LIVINGZONE
 62
 43
 10
       11.45673
 20
        4.16991
 30
        3.65760
 11
       11.45673
 21
        4.16991
 31
        0.00000
 12
       11.45673
 22
       11.78991
 32
        0.00000
 13
       11.45673
 23
       11.78991
 33
        3.65760
999
LIVINGZONE:NORTHWALL
  0
3DFACE
  8
LIVINGZONE
 62
 43
 10
        8.85054
 20
       11.33037
 30
        3.65760
 11
        8.85054
 21
       11.33037
 31
        0.00000
 12
       -3.34146
 22
       11.33037
 32
        0.00000
 13
       -3.34146
 23
       11.33037
 33
        3.65760
999
LIVINGZONE:NORTHWINDOW1
  0
3DFACE
  8
LIVINGZONE
 62
143
 10
       -0.29346
 20
       11.33037
 30
        2.74320
 11
       -0.29346
 21
       11.33037
 31
        0.60960
 12
       -1.81746
 22
       11.33037
 32
        0.60960
 13
       -1.81746
 23
       11.33037
 33
        2.74320
999
LIVINGZONE:NORTHWINDOW2
  0
3DFACE
  8
LIVINGZONE
 62
143
 10
        7.32654
 20
       11.33037
 30
        2.74320
 11
        7.32654
 21
       11.33037
 31
        0.60960
 12
        5.80254
 22
       11.33037
 32
        0.60960
 13
        5.80254
 23
       11.33037
 33
        2.74320
999
LIVINGZONE:EASTWALL
  0
3DFACE
  8
LIVINGZONE
 62
 43
 10
       -2.60619
 20
        7.16046
 30
        3.65760
 11
       -2.60619
 21
        7.16046
 31
        0.00000
 12
       -2.60619
 22
       -0.45954
 32
        0.00000
 13
       -2.60619
 23
       -0.45954
 33
        3.65760
999
LIVINGZONE:EXTDOOR1
  0
3DFACE
  8
LIVINGZONE
 62
 45
 10
       -2.60619
 20
        1.06446
 30
        2.43840
 11
       -2.60619
 21
        1.06446
 31
        0.30480
 12
       -2.60619
 22
        0.15006
 32
        0.30480
 13
       -2.60619
 23
        0.15006
 33
        2.43840
999
LIVINGZONE:SLAB
  0
3DFACE
  8
LIVINGZONE
 62
  8
 10
       11.45673
 20
       11.78991
 30
        0.00000
 11
       11.45673
 21
        4.16991
 31
        0.00000
 12
       -0.73527
 22
        4.16991
 32
        0.00000
 13
       -0.73527
 23
       11.78991
 33
        0.00000
999
LIVINGZONE:EXTROOF
  0
3DFACE
  8
LIVINGZONE
 62
 15
 10
        8.85054
 20
        3.71037
 30
        3.65760
 11
        8.85054
 21
       11.33037
 31
        3.65760
 12
       -3.34146
 22
       11.33037
 32
        3.65760
 13
       -3.34146
 23
        3.71037
 33
        3.65760
999
LIVINGZONE:SOUTHOVERHANG
  0
3DFACE
  8
LIVINGZONE
 62
 13
 10
        1.21920
 20
       -1.92024
 30
        2.89560
 11
        1.21920
 21
        0.00000
 31
        2.89560
 12
       10.97280
 22
        0.00000
 32
        2.89560
 13
       10.97280
 23
       -1.92024
 33
        2.89560
999
LIVINGZONE:Mir-SOUTHOVERHANG
  0
3DFACE
  8
LIVINGZONE
 62
 13
 10
       10.97280
 20
       -1.92024
 30
        2.89560
 11
       10.97280
 21
        0.00000
 31
        2.89560
 12
        1.21920
 22
        0.00000
 32
        2.89560
 13
        1.21920
 23
       -1.92024
 33
        2.89560
  0
ENDSEC
  0
EOF
