  0
SECTION
  2
ENTITIES
999
DXF created from EnergyPlus
999
Program Version,EnergyPlus, Version 25.1.0-1c11a3d85f, YMD=2026.06.05 01:20
999
Polygon Action,THICKPOLYLINE
999
Color Scheme,Default
999
Text - True North
  0
TEXT
  8
1
  6
Continuous
 62
  3
 10
      -12.50842
 20
        2.46660
 30
        0.10000
 40
 .25
  1
True North
 41
 0.0
  7
MONOTXT
210
0.0
220
0.0
230
1.0
999
Text - Building Title
  0
TEXT
  8
1
  6
Continuous
 62
  3
 10
      -15.50842
 20
       -1.53340
 30
        0.10000
 40
 .4
  1
Building - None
 41
 0.0
  7
MONOTXT
210
0.0
220
0.0
230
1.0
999
North Arrow Stem
  0
3DFACE
  8
1
 62
  3
 10
      -11.50842
 20
        2.46660
 30
        0.10000
 11
      -11.50842
 21
        2.46660
 31
        0.00000
 12
      -11.50842
 22
       -0.53340
 32
        0.00000
 13
      -11.50842
 23
       -0.53340
 33
        0.10000
999
North Arrow Head 1
  0
3DFACE
  8
1
 62
  3
 10
      -11.50842
 20
        2.46660
 30
        0.10000
 11
      -11.50842
 21
        2.46660
 31
        0.00000
 12
      -12.00842
 22
        1.60058
 32
        0.00000
 13
      -12.00842
 23
        1.60058
 33
        0.10000
999
North Arrow Head 2
  0
3DFACE
  8
1
 62
  3
 10
      -11.50842
 20
        2.46660
 30
        0.10000
 11
      -11.50842
 21
        2.46660
 31
        0.00000
 12
      -11.00842
 22
        1.60058
 32
        0.00000
 13
      -11.00842
 23
        1.60058
 33
        0.10000
999
North Arrow Side 1
  0
3DFACE
  8
1
 62
  3
 10
      -12.00842
 20
        3.96660
 30
        0.10000
 11
      -12.00842
 21
        3.96660
 31
        0.00000
 12
      -12.00842
 22
        2.96660
 32
        0.00000
 13
      -12.00842
 23
        2.96660
 33
        0.10000
999
North Arrow Side 2
  0
3DFACE
  8
1
 62
  3
 10
      -12.00842
 20
        3.96660
 30
        0.10000
 11
      -12.00842
 21
        3.96660
 31
        0.00000
 12
      -11.00842
 22
        2.96660
 32
        0.00000
 13
      -11.00842
 23
        2.96660
 33
        0.10000
999
North Arrow Side 3
  0
3DFACE
  8
1
 62
  3
 10
      -11.00842
 20
        3.96660
 30
        0.10000
 11
      -11.00842
 21
        3.96660
 31
        0.00000
 12
      -11.00842
 22
        2.96660
 32
        0.00000
 13
      -11.00842
 23
        2.96660
 33
        0.10000
999
Zone Names
999
Zone=1:LIVINGZONE
999
LIVINGZONE:SOUTHWALL
  0
3DFACE
  8
LIVINGZONE
 62
 43
 10
       -0.00000
 20
        0.00000
 30
        3.65760
 11
        0.00000
 21
        0.00000
 31
        0.00000
 12
       12.19200
 22
        0.00000
 32
        0.00000
 13
       12.19200
 23
        0.00000
 33
        3.65760
999
LIVINGZONE:SOUTHWINDOW1
  0
3DFACE
  8
LIVINGZONE
 62
143
 10
        1.52400
 20
        0.00000
 30
        2.74320
 11
        1.52400
 21
        0.00000
 31
        0.60960
 12
       10.66800
 22
        0.00000
 32
        0.60960
 13
       10.66800
 23
        0.00000
 33
        2.74320
999
LIVINGZONE:WESTWALL
  0
3DFACE
  8
LIVINGZONE
 62
 43
 10
       12.00678
 20
        2.11712
 30
        3.65760
 11
       12.00678
 21
        2.11712
 31
        0.00000
 12
       12.00678
 22
        9.73712
 32
        0.00000
 13
       12.00678
 23
        9.73712
 33
        3.65760
999
LIVINGZONE:NORTHWALL
  0
3DFACE
  8
LIVINGZONE
 62
 43
 10
       10.68358
 20
        9.62135
 30
        3.65760
 11
       10.68358
 21
        9.62135
 31
        0.00000
 12
       -1.50842
 22
        9.62135
 32
        0.00000
 13
       -1.50842
 23
        9.62135
 33
        3.65760
999
LIVINGZONE:NORTHWINDOW1
  0
3DFACE
  8
LIVINGZONE
 62
143
 10
        1.53958
 20
        9.62135
 30
        2.74320
 11
        1.53958
 21
        9.62135
 31
        0.60960
 12
        0.01558
 22
        9.62135
 32
        0.60960
 13
        0.01558
 23
        9.62135
 33
        2.74320
999
LIVINGZONE:NORTHWINDOW2
  0
3DFACE
  8
LIVINGZONE
 62
143
 10
        9.15958
 20
        9.62135
 30
        2.74320
 11
        9.15958
 21
        9.62135
 31
        0.60960
 12
        7.63558
 22
        9.62135
 32
        0.60960
 13
        7.63558
 23
        9.62135
 33
        2.74320
999
LIVINGZONE:EASTWALL
  0
3DFACE
  8
LIVINGZONE
 62
 43
 10
       -1.32320
 20
        7.50424
 30
        3.65760
 11
       -1.32320
 21
        7.50424
 31
        0.00000
 12
       -1.32320
 22
       -0.11576
 32
        0.00000
 13
       -1.32320
 23
       -0.11576
 33
        3.65760
999
LIVINGZONE:EXTDOOR1
  0
3DFACE
  8
LIVINGZONE
 62
 45
 10
       -1.32320
 20
        1.40824
 30
        2.43840
 11
       -1.32320
 21
        1.40824
 31
        0.30480
 12
       -1.32320
 22
        0.49384
 32
        0.30480
 13
       -1.32320
 23
        0.49384
 33
        2.43840
999
LIVINGZONE:SLAB
  0
3DFACE
  8
LIVINGZONE
 62
  8
 10
       12.00678
 20
        9.73712
 30
        0.00000
 11
       12.00678
 21
        2.11712
 31
        0.00000
 12
       -0.18522
 22
        2.11712
 32
        0.00000
 13
       -0.18522
 23
        9.73712
 33
        0.00000
999
LIVINGZONE:EXTROOF
  0
3DFACE
  8
LIVINGZONE
 62
 15
 10
       10.68358
 20
        2.00135
 30
        3.65760
 11
       10.68358
 21
        9.62135
 31
        3.65760
 12
       -1.50842
 22
        9.62135
 32
        3.65760
 13
       -1.50842
 23
        2.00135
 33
        3.65760
999
LIVINGZONE:SOUTHOVERHANG
  0
3DFACE
  8
LIVINGZONE
 62
 13
 10
        1.21920
 20
       -0.53340
 30
        2.89560
 11
        1.21920
 21
        0.00000
 31
        2.89560
 12
       10.97280
 22
        0.00000
 32
        2.89560
 13
       10.97280
 23
       -0.53340
 33
        2.89560
999
LIVINGZONE:Mir-SOUTHOVERHANG
  0
3DFACE
  8
LIVINGZONE
 62
 13
 10
       10.97280
 20
       -0.53340
 30
        2.89560
 11
       10.97280
 21
        0.00000
 31
        2.89560
 12
        1.21920
 22
        0.00000
 32
        2.89560
 13
        1.21920
 23
       -0.53340
 33
        2.89560
  0
ENDSEC
  0
EOF
