  0
SECTION
  2
ENTITIES
999
DXF created from EnergyPlus
999
Program Version,EnergyPlus, Version 25.1.0-1c11a3d85f, YMD=2026.06.05 01:20
999
Polygon Action,THICKPOLYLINE
999
Color Scheme,Default
999
Text - True North
  0
TEXT
  8
1
  6
Continuous
 62
  3
 10
      -13.38763
 20
        1.61316
 30
        0.10000
 40
 .25
  1
True North
 41
 0.0
  7
MONOTXT
210
0.0
220
0.0
230
1.0
999
Text - Building Title
  0
TEXT
  8
1
  6
Continuous
 62
  3
 10
      -16.38763
 20
       -2.38684
 30
        0.10000
 40
 .4
  1
Building - None
 41
 0.0
  7
MONOTXT
210
0.0
220
0.0
230
1.0
999
North Arrow Stem
  0
3DFACE
  8
1
 62
  3
 10
      -12.38763
 20
        1.61316
 30
        0.10000
 11
      -12.38763
 21
        1.61316
 31
        0.00000
 12
      -12.38763
 22
       -1.38684
 32
        0.00000
 13
      -12.38763
 23
       -1.38684
 33
        0.10000
999
North Arrow Head 1
  0
3DFACE
  8
1
 62
  3
 10
      -12.38763
 20
        1.61316
 30
        0.10000
 11
      -12.38763
 21
        1.61316
 31
        0.00000
 12
      -12.88763
 22
        0.74714
 32
        0.00000
 13
      -12.88763
 23
        0.74714
 33
        0.10000
999
North Arrow Head 2
  0
3DFACE
  8
1
 62
  3
 10
      -12.38763
 20
        1.61316
 30
        0.10000
 11
      -12.38763
 21
        1.61316
 31
        0.00000
 12
      -11.88763
 22
        0.74714
 32
        0.00000
 13
      -11.88763
 23
        0.74714
 33
        0.10000
999
North Arrow Side 1
  0
3DFACE
  8
1
 62
  3
 10
      -12.88763
 20
        3.11316
 30
        0.10000
 11
      -12.88763
 21
        3.11316
 31
        0.00000
 12
      -12.88763
 22
        2.11316
 32
        0.00000
 13
      -12.88763
 23
        2.11316
 33
        0.10000
999
North Arrow Side 2
  0
3DFACE
  8
1
 62
  3
 10
      -12.88763
 20
        3.11316
 30
        0.10000
 11
      -12.88763
 21
        3.11316
 31
        0.00000
 12
      -11.88763
 22
        2.11316
 32
        0.00000
 13
      -11.88763
 23
        2.11316
 33
        0.10000
999
North Arrow Side 3
  0
3DFACE
  8
1
 62
  3
 10
      -11.88763
 20
        3.11316
 30
        0.10000
 11
      -11.88763
 21
        3.11316
 31
        0.00000
 12
      -11.88763
 22
        2.11316
 32
        0.00000
 13
      -11.88763
 23
        2.11316
 33
        0.10000
999
Zone Names
999
Zone=1:LIVINGZONE
999
LIVINGZONE:SOUTHWALL
  0
3DFACE
  8
LIVINGZONE
 62
 43
 10
       -0.00000
 20
        0.00000
 30
        3.65760
 11
        0.00000
 21
        0.00000
 31
        0.00000
 12
       12.19200
 22
        0.00000
 32
        0.00000
 13
       12.19200
 23
        0.00000
 33
        3.65760
999
LIVINGZONE:SOUTHWINDOW1
  0
3DFACE
  8
LIVINGZONE
 62
143
 10
        1.52400
 20
        0.00000
 30
        2.74320
 11
        1.52400
 21
        0.00000
 31
        0.60960
 12
       10.66800
 22
        0.00000
 32
        0.60960
 13
       10.66800
 23
        0.00000
 33
        2.74320
999
LIVINGZONE:WESTWALL
  0
3DFACE
  8
LIVINGZONE
 62
 43
 10
       11.77657
 20
        3.15552
 30
        3.65760
 11
       11.77657
 21
        3.15552
 31
        0.00000
 12
       11.77657
 22
       10.77552
 32
        0.00000
 13
       11.77657
 23
       10.77552
 33
        3.65760
999
LIVINGZONE:NORTHWALL
  0
3DFACE
  8
LIVINGZONE
 62
 43
 10
        9.80437
 20
       10.51588
 30
        3.65760
 11
        9.80437
 21
       10.51588
 31
        0.00000
 12
       -2.38763
 22
       10.51588
 32
        0.00000
 13
       -2.38763
 23
       10.51588
 33
        3.65760
999
LIVINGZONE:NORTHWINDOW1
  0
3DFACE
  8
LIVINGZONE
 62
143
 10
        0.66037
 20
       10.51588
 30
        2.74320
 11
        0.66037
 21
       10.51588
 31
        0.60960
 12
       -0.86363
 22
       10.51588
 32
        0.60960
 13
       -0.86363
 23
       10.51588
 33
        2.74320
999
LIVINGZONE:NORTHWINDOW2
  0
3DFACE
  8
LIVINGZONE
 62
143
 10
        8.28037
 20
       10.51588
 30
        2.74320
 11
        8.28037
 21
       10.51588
 31
        0.60960
 12
        6.75637
 22
       10.51588
 32
        0.60960
 13
        6.75637
 23
       10.51588
 33
        2.74320
999
LIVINGZONE:EASTWALL
  0
3DFACE
  8
LIVINGZONE
 62
 43
 10
       -1.97220
 20
        7.36035
 30
        3.65760
 11
       -1.97220
 21
        7.36035
 31
        0.00000
 12
       -1.97220
 22
       -0.25965
 32
        0.00000
 13
       -1.97220
 23
       -0.25965
 33
        3.65760
999
LIVINGZONE:EXTDOOR1
  0
3DFACE
  8
LIVINGZONE
 62
 45
 10
       -1.97220
 20
        1.26435
 30
        2.43840
 11
       -1.97220
 21
        1.26435
 31
        0.30480
 12
       -1.97220
 22
        0.34995
 32
        0.30480
 13
       -1.97220
 23
        0.34995
 33
        2.43840
999
LIVINGZONE:SLAB
  0
3DFACE
  8
LIVINGZONE
 62
  8
 10
       11.77657
 20
       10.77552
 30
        0.00000
 11
       11.77657
 21
        3.15552
 31
        0.00000
 12
       -0.41543
 22
        3.15552
 32
        0.00000
 13
       -0.41543
 23
       10.77552
 33
        0.00000
999
LIVINGZONE:EXTROOF
  0
3DFACE
  8
LIVINGZONE
 62
 15
 10
        9.80437
 20
        2.89588
 30
        3.65760
 11
        9.80437
 21
       10.51588
 31
        3.65760
 12
       -2.38763
 22
       10.51588
 32
        3.65760
 13
       -2.38763
 23
        2.89588
 33
        3.65760
999
LIVINGZONE:SOUTHOVERHANG
  0
3DFACE
  8
LIVINGZONE
 62
 13
 10
        1.21920
 20
       -1.38684
 30
        2.89560
 11
        1.21920
 21
        0.00000
 31
        2.89560
 12
       10.97280
 22
        0.00000
 32
        2.89560
 13
       10.97280
 23
       -1.38684
 33
        2.89560
999
LIVINGZONE:Mir-SOUTHOVERHANG
  0
3DFACE
  8
LIVINGZONE
 62
 13
 10
       10.97280
 20
       -1.38684
 30
        2.89560
 11
       10.97280
 21
        0.00000
 31
        2.89560
 12
        1.21920
 22
        0.00000
 32
        2.89560
 13
        1.21920
 23
       -1.38684
 33
        2.89560
  0
ENDSEC
  0
EOF
