  0
SECTION
  2
ENTITIES
999
DXF created from EnergyPlus
999
Program Version,EnergyPlus, Version 25.1.0-1c11a3d85f, YMD=2026.06.05 01:20
999
Polygon Action,THICKPOLYLINE
999
Color Scheme,Default
999
Text - True North
  0
TEXT
  8
1
  6
Continuous
 62
  3
 10
      -11.71052
 20
        2.03988
 30
        0.10000
 40
 .25
  1
True North
 41
 0.0
  7
MONOTXT
210
0.0
220
0.0
230
1.0
999
Text - Building Title
  0
TEXT
  8
1
  6
Continuous
 62
  3
 10
      -14.71052
 20
       -1.96012
 30
        0.10000
 40
 .4
  1
Building - None
 41
 0.0
  7
MONOTXT
210
0.0
220
0.0
230
1.0
999
North Arrow Stem
  0
3DFACE
  8
1
 62
  3
 10
      -10.71052
 20
        2.03988
 30
        0.10000
 11
      -10.71052
 21
        2.03988
 31
        0.00000
 12
      -10.71052
 22
       -0.96012
 32
        0.00000
 13
      -10.71052
 23
       -0.96012
 33
        0.10000
999
North Arrow Head 1
  0
3DFACE
  8
1
 62
  3
 10
      -10.71052
 20
        2.03988
 30
        0.10000
 11
      -10.71052
 21
        2.03988
 31
        0.00000
 12
      -11.21052
 22
        1.17386
 32
        0.00000
 13
      -11.21052
 23
        1.17386
 33
        0.10000
999
North Arrow Head 2
  0
3DFACE
  8
1
 62
  3
 10
      -10.71052
 20
        2.03988
 30
        0.10000
 11
      -10.71052
 21
        2.03988
 31
        0.00000
 12
      -10.21052
 22
        1.17386
 32
        0.00000
 13
      -10.21052
 23
        1.17386
 33
        0.10000
999
North Arrow Side 1
  0
3DFACE
  8
1
 62
  3
 10
      -11.21052
 20
        3.53988
 30
        0.10000
 11
      -11.21052
 21
        3.53988
 31
        0.00000
 12
      -11.21052
 22
        2.53988
 32
        0.00000
 13
      -11.21052
 23
        2.53988
 33
        0.10000
999
North Arrow Side 2
  0
3DFACE
  8
1
 62
  3
 10
      -11.21052
 20
        3.53988
 30
        0.10000
 11
      -11.21052
 21
        3.53988
 31
        0.00000
 12
      -10.21052
 22
        2.53988
 32
        0.00000
 13
      -10.21052
 23
        2.53988
 33
        0.10000
999
North Arrow Side 3
  0
3DFACE
  8
1
 62
  3
 10
      -10.21052
 20
        3.53988
 30
        0.10000
 11
      -10.21052
 21
        3.53988
 31
        0.00000
 12
      -10.21052
 22
        2.53988
 32
        0.00000
 13
      -10.21052
 23
        2.53988
 33
        0.10000
999
Zone Names
999
Zone=1:LIVINGZONE
999
LIVINGZONE:SOUTHWALL
  0
3DFACE
  8
LIVINGZONE
 62
 43
 10
       -0.00000
 20
        0.00000
 30
        3.65760
 11
        0.00000
 21
        0.00000
 31
        0.00000
 12
       12.19200
 22
        0.00000
 32
        0.00000
 13
       12.19200
 23
        0.00000
 33
        3.65760
999
LIVINGZONE:SOUTHWINDOW1
  0
3DFACE
  8
LIVINGZONE
 62
143
 10
        1.52400
 20
        0.00000
 30
        2.74320
 11
        1.52400
 21
        0.00000
 31
        0.60960
 12
       10.66800
 22
        0.00000
 32
        0.60960
 13
       10.66800
 23
        0.00000
 33
        2.74320
999
LIVINGZONE:WESTWALL
  0
3DFACE
  8
LIVINGZONE
 62
 43
 10
       12.14561
 20
        1.06260
 30
        3.65760
 11
       12.14561
 21
        1.06260
 31
        0.00000
 12
       12.14561
 22
        8.68260
 32
        0.00000
 13
       12.14561
 23
        8.68260
 33
        3.65760
999
LIVINGZONE:NORTHWALL
  0
3DFACE
  8
LIVINGZONE
 62
 43
 10
       11.48148
 20
        8.65361
 30
        3.65760
 11
       11.48148
 21
        8.65361
 31
        0.00000
 12
       -0.71052
 22
        8.65361
 32
        0.00000
 13
       -0.71052
 23
        8.65361
 33
        3.65760
999
LIVINGZONE:NORTHWINDOW1
  0
3DFACE
  8
LIVINGZONE
 62
143
 10
        2.33748
 20
        8.65361
 30
        2.74320
 11
        2.33748
 21
        8.65361
 31
        0.60960
 12
        0.81348
 22
        8.65361
 32
        0.60960
 13
        0.81348
 23
        8.65361
 33
        2.74320
999
LIVINGZONE:NORTHWINDOW2
  0
3DFACE
  8
LIVINGZONE
 62
143
 10
        9.95748
 20
        8.65361
 30
        2.74320
 11
        9.95748
 21
        8.65361
 31
        0.60960
 12
        8.43348
 22
        8.65361
 32
        0.60960
 13
        8.43348
 23
        8.65361
 33
        2.74320
999
LIVINGZONE:EASTWALL
  0
3DFACE
  8
LIVINGZONE
 62
 43
 10
       -0.66413
 20
        7.59100
 30
        3.65760
 11
       -0.66413
 21
        7.59100
 31
        0.00000
 12
       -0.66413
 22
       -0.02900
 32
        0.00000
 13
       -0.66413
 23
       -0.02900
 33
        3.65760
999
LIVINGZONE:EXTDOOR1
  0
3DFACE
  8
LIVINGZONE
 62
 45
 10
       -0.66413
 20
        1.49500
 30
        2.43840
 11
       -0.66413
 21
        1.49500
 31
        0.30480
 12
       -0.66413
 22
        0.58060
 32
        0.30480
 13
       -0.66413
 23
        0.58060
 33
        2.43840
999
LIVINGZONE:SLAB
  0
3DFACE
  8
LIVINGZONE
 62
  8
 10
       12.14561
 20
        8.68260
 30
        0.00000
 11
       12.14561
 21
        1.06260
 31
        0.00000
 12
       -0.04639
 22
        1.06260
 32
        0.00000
 13
       -0.04639
 23
        8.68260
 33
        0.00000
999
LIVINGZONE:EXTROOF
  0
3DFACE
  8
LIVINGZONE
 62
 15
 10
       11.48148
 20
        1.03361
 30
        3.65760
 11
       11.48148
 21
        8.65361
 31
        3.65760
 12
       -0.71052
 22
        8.65361
 32
        3.65760
 13
       -0.71052
 23
        1.03361
 33
        3.65760
999
LIVINGZONE:SOUTHOVERHANG
  0
3DFACE
  8
LIVINGZONE
 62
 13
 10
        1.21920
 20
       -0.96012
 30
        2.89560
 11
        1.21920
 21
        0.00000
 31
        2.89560
 12
       10.97280
 22
        0.00000
 32
        2.89560
 13
       10.97280
 23
       -0.96012
 33
        2.89560
999
LIVINGZONE:Mir-SOUTHOVERHANG
  0
3DFACE
  8
LIVINGZONE
 62
 13
 10
       10.97280
 20
       -0.96012
 30
        2.89560
 11
       10.97280
 21
        0.00000
 31
        2.89560
 12
        1.21920
 22
        0.00000
 32
        2.89560
 13
        1.21920
 23
       -0.96012
 33
        2.89560
  0
ENDSEC
  0
EOF
